<?xml version="1.0" encoding="utf-8"?>
<!-- Generator: Adobe Illustrator 27.0.0, SVG Export Plug-In . SVG Version: 6.00 Build 0)  -->
<svg version="1.1" id="Layer_1" xmlns="http://www.w3.org/2000/svg" xmlns:xlink="http://www.w3.org/1999/xlink" x="0px" y="0px"
	 viewBox="0 0 2000 632" style="enable-background:new 0 0 2000 632;" xml:space="preserve">
<style type="text/css">
	.st0{fill-rule:evenodd;clip-rule:evenodd;fill:#FFFFFF;}
</style>
<g>
	<path class="st0" d="M1140.7,315.1c0-69-55.9-125-125-125l-51.8,0v-0.2l-103.3,0c-4.8,0-8.8,3.9-8.8,8.8v66.7l0,29.6v5.1v47.2v84.2
		c0,4.8,3.9,8.8,8.8,8.8l103.3,0v-0.2h51.8C1084.8,440.1,1140.7,384.1,1140.7,315.1L1140.7,315.1z M912.3,245.9l103.2,0
		c38.2,0,69.2,31,69.2,69.2v0c0,38.2-31,69.2-69.2,69.2l-103.2,0c-2.4,0-4.4-2-4.4-4.4V250.3C907.9,247.9,909.9,245.9,912.3,245.9z"
		/>
	<path class="st0" d="M1329.7,241.2l-23.2-46.2c-1.5-3-4.5-4.8-7.8-4.8l-48.7,0c-3.3,0-6.3,1.9-7.8,4.8l-19.4,38.7l-97.8,193.7
		c-2.9,5.8,1.3,12.7,7.8,12.7l45.6,0c3.3,0,6.3-1.9,7.8-4.8l84.3-167c1.6-3.2,6.2-3.2,7.8,0l84.2,167c1.5,3,4.5,4.8,7.8,4.8h45.6
		c6.5,0,10.8-6.9,7.8-12.7L1329.7,241.2z"/>
	<path class="st0" d="M749.2,440.3l-194,0c-4.8,0-8.8-3.9-8.8-8.8v-38.5c0-4.8,3.9-8.8,8.8-8.8l194,0c11.4,0,20.6-9.2,20.6-20.6v0
		c0-11.4-9.2-20.6-20.6-20.6l-74.2,0h-13.2h-49.2c-42.3,0-76.6-34.3-76.6-76.6v0c0-42.3,34.3-76.6,76.6-76.6l49.2,0H675l132.5,0
		c4.8,0,8.8,3.9,8.8,8.8l0,38.5c0,4.8-3.9,8.8-8.8,8.8l-194.8,0c-11.4,0-20.6,9.2-20.6,20.6v0c0,11.4,9.2,20.6,20.6,20.6l136.5,0
		c42.3,0,76.6,34.3,76.6,76.6v0C825.8,406,791.5,440.3,749.2,440.3z"/>
	<g>
		<g>
			<path class="st0" d="M1448.8,410h29.5v30.4l-29.5,0V410z"/>
			<path class="st0" d="M1615.8,415.9c-6.4,7.6-14,13.7-22.6,18.5c-8.7,4.9-18.7,7.5-30.1,7.7c-17.3,0-32.5-6.1-45.6-18.3
				c-13.6-12.2-20.5-31.9-20.9-59.1c0.4-27.5,7.3-47.5,20.9-59.9c13.1-12.2,28.3-18.2,45.7-18c11.4,0.2,21.4,2.6,30.1,7.3
				c8.7,4.8,16.2,11.1,22.6,19.1l-21.8,20c-7.4-10.3-17.4-15.6-29.8-16c-25.1-0.4-37.8,15.4-38.2,47.5c0.4,31.8,13.1,47.5,38.2,47
				c12.4-0.2,22.4-5.5,29.8-15.8L1615.8,415.9z"/>
			<path class="st0" d="M1633.1,364.4c0-16,1.3-28.3,3.8-36.9c2.6-8.4,6.7-15.5,12.2-21.2c4.1-5,9.7-9.5,17-13.5
				c7.2-3.8,16.4-5.8,27.6-6c11.6,0.2,21,2.2,28.1,6c7.1,4,12.5,8.5,16.4,13.6c5.8,5.7,10,12.8,12.4,21.2c2.4,8.6,3.5,20.8,3.5,36.8
				c0,16-1.2,28.1-3.5,36.5c-2.4,8.4-6.6,15.6-12.4,21.8c-1.9,2.2-4.2,4.4-6.9,6.6c-2.4,2.4-5.6,4.5-9.5,6.3
				c-7.2,4.2-16.5,6.4-28.1,6.6c-11.2-0.2-20.4-2.4-27.6-6.6c-7.3-3.8-12.9-8.1-17-12.9c-5.5-6.1-9.5-13.4-12.2-21.8
				C1634.4,392.5,1633.1,380.4,1633.1,364.4z M1724.7,364.7c0-10.8-0.5-18.8-1.4-23.7c-0.9-4.8-2.9-9-5.8-12.6
				c-2.2-3.4-5.4-6.1-9.6-8.1c-4.1-2-8.8-3.1-14.2-3.1c-5,0-9.6,1-13.9,3.1c-4.1,1.9-7.4,4.6-9.9,8.1c-2.6,3.6-4.4,7.8-5.5,12.6
				c-1.1,5-1.7,12.8-1.7,23.4c0,10.5,0.6,18.3,1.7,23.2c1.1,5,3,9.4,5.5,13.2c2.5,2.9,5.9,5.5,9.9,7.8c4.3,2.1,8.9,3.2,13.9,3.2
				c5.4,0,10.1-1.1,14.2-3.2c4.3-2.2,7.5-4.8,9.6-7.8c2.9-3.8,4.9-8.2,5.8-13.2C1724.2,382.7,1724.7,375,1724.7,364.7z"/>
			<path class="st0" d="M1788.8,288.8h29.5v16.1h0.6c10-12,23.2-18,39.6-18c10.5,0.2,19,2,25.4,5.4c6.3,3.8,12.1,8.6,17.4,14.5
				c11.9-13.4,27.8-20,47.8-19.9c12.6,0,24,4.4,34.5,13.3c10.3,9,15.7,22.1,16.1,39.4v100.8H1970V350c0-10.6-2.8-18.7-8.5-24.3
				c-5.6-5.7-12.9-8.5-21.8-8.5c-8.9,0-16.2,2.8-22,8.5c-5.8,5.6-8.8,13.6-8.8,24.3v90.4h-29.5V350c0-10.6-2.8-18.7-8.5-24.3
				c-5.7-5.7-13.1-8.5-22-8.5c-8.9,0-16.2,2.8-21.8,8.5c-5.9,5.6-8.9,13.6-8.9,24.3l0,90.4h-29.5V288.8z"/>
		</g>
	</g>
	<g>
		<g>
			<path class="st0" d="M14.3,242.6l29.5,0l0,46.1h21.5l0,23.3H43.8l0,88.4c-0.2,7.7,3.3,11.4,10.5,11.2h11l0,28.6l-15.4,0
				c-10.4,0-18.8-3.3-25.4-9.9c-6.8-6.3-10.2-15.5-10.2-27.4l0-90.9H-0.5l0-23.3h14.8L14.3,242.6z"/>
			<path class="st0" d="M88.3,364.4c0-16,1.3-28.3,3.8-36.9c2.6-8.4,6.7-15.5,12.2-21.2c4.1-5,9.7-9.5,17-13.5
				c7.2-3.8,16.4-5.8,27.6-6c11.6,0.2,21,2.2,28.1,6c7.1,4,12.5,8.5,16.4,13.6c5.8,5.7,10,12.8,12.4,21.2c2.4,8.6,3.5,20.8,3.5,36.8
				c0,16-1.2,28.1-3.5,36.5c-2.4,8.4-6.6,15.6-12.4,21.8c-1.9,2.2-4.2,4.4-6.9,6.6c-2.4,2.4-5.6,4.5-9.5,6.3
				c-7.2,4.2-16.5,6.4-28.1,6.6c-11.2-0.2-20.4-2.4-27.6-6.6c-7.3-3.8-12.9-8.1-17-12.8c-5.5-6.1-9.5-13.4-12.2-21.8
				C89.6,392.5,88.3,380.4,88.3,364.4z M179.9,364.7c0-10.8-0.5-18.8-1.4-23.7c-0.9-4.8-2.9-9-5.8-12.6c-2.2-3.4-5.4-6.1-9.6-8.1
				c-4.1-2-8.8-3.1-14.2-3.1c-5,0-9.6,1-13.9,3.1c-4.1,1.9-7.4,4.6-9.9,8.1c-2.6,3.6-4.4,7.8-5.5,12.6c-1.1,5-1.7,12.8-1.7,23.4
				c0,10.5,0.6,18.3,1.7,23.2c1.1,5,3,9.4,5.5,13.2c2.5,2.9,5.9,5.5,9.9,7.8c4.3,2.1,8.9,3.2,13.9,3.2c5.4,0,10.1-1.1,14.2-3.2
				c4.3-2.2,7.5-4.8,9.6-7.8c2.9-3.8,4.9-8.2,5.8-13.2C179.4,382.7,179.9,375,179.9,364.7z"/>
			<path class="st0" d="M245.2,227.4l29.5,0l0,132.4h0.6l56.5-71.1l35.4,0l-50.7,59.1l57.6,92.4l-37.1,0l-39.1-70.8l-23.2,27.2v43.7
				l-29.5,0L245.2,227.4z"/>
			<path class="st0" d="M389.4,364.4c0-16,1.3-28.3,3.8-36.9c2.6-8.4,6.7-15.5,12.2-21.2c4.1-5,9.7-9.5,17-13.5
				c7.2-3.8,16.4-5.8,27.6-6c11.6,0.2,21,2.2,28.1,6c7.1,4,12.5,8.5,16.4,13.6c5.8,5.7,10,12.8,12.4,21.2c2.4,8.6,3.5,20.8,3.5,36.8
				c0,16-1.2,28.1-3.5,36.5c-2.4,8.4-6.6,15.6-12.4,21.8c-1.9,2.2-4.2,4.4-6.9,6.6c-2.4,2.4-5.6,4.5-9.5,6.3
				c-7.2,4.2-16.5,6.4-28.1,6.6c-11.2-0.2-20.4-2.4-27.6-6.6c-7.3-3.8-12.9-8.1-17-12.8c-5.5-6.1-9.5-13.4-12.2-21.8
				C390.7,392.5,389.4,380.4,389.4,364.4z M481,364.7c0-10.8-0.5-18.8-1.4-23.7c-0.9-4.8-2.9-9-5.8-12.6c-2.2-3.4-5.4-6.1-9.6-8.1
				c-4.1-2-8.8-3.1-14.2-3.1c-5,0-9.6,1-13.9,3.1c-4.1,1.9-7.4,4.6-9.9,8.1c-2.6,3.6-4.4,7.8-5.5,12.6c-1.1,5-1.7,12.8-1.7,23.4
				c0,10.5,0.6,18.3,1.7,23.2c1.1,5,3,9.4,5.5,13.2c2.5,2.9,5.9,5.5,9.9,7.8c4.3,2.1,8.9,3.2,13.9,3.2c5.4,0,10.1-1.1,14.2-3.2
				c4.3-2.2,7.5-4.8,9.6-7.8c2.9-3.8,4.9-8.2,5.8-13.2C480.5,382.7,481,375,481,364.7z"/>
		</g>
	</g>
</g>
</svg>
