<?xml version="1.0" encoding="utf-8"?>
<!-- Generator: Adobe Illustrator 16.0.0, SVG Export Plug-In . SVG Version: 6.00 Build 0)  -->
<!DOCTYPE svg PUBLIC "-//W3C//DTD SVG 1.1//EN" "http://www.w3.org/Graphics/SVG/1.1/DTD/svg11.dtd">
<svg version="1.1" id="Layer_1" xmlns="http://www.w3.org/2000/svg" xmlns:xlink="http://www.w3.org/1999/xlink" x="0px" y="0px"
	 width="156px" height="152.598px" viewBox="0 0 156 152.598" enable-background="new 0 0 156 152.598" xml:space="preserve">
<path fill="#808080" d="M115.324,53.308c-2.953-7.1-7.395-13.446-12.855-18.774c-5.58-5.537-11.982-9.73-19.095-12.637
	c-7.438-3.063-15.312-4.678-23.408-4.678c-8.045,0-15.979,1.614-23.356,4.678c-7.117,2.906-13.565,7.1-19.155,12.637
	C12.041,39.862,7.715,46.209,4.6,53.308C1.476,60.621-0.001,68.2-0.001,76.163c0,8.123,1.477,15.706,4.601,23.02
	c3.115,7.101,7.438,13.445,12.854,18.771c5.581,5.546,12.034,9.744,19.155,12.638c7.378,3.067,15.312,4.731,23.356,4.731
	c8.097,0,15.971-1.664,23.408-4.731c7.111-2.894,13.516-7.092,19.095-12.638c5.462-5.324,9.902-11.67,12.855-18.771
	c3.167-7.313,4.811-14.893,4.811-23.02C120.135,68.196,118.491,60.617,115.324,53.308 M88.467,104.183
	c-7.549,7.639-17.785,11.67-28.501,11.67c-10.724,0-20.909-4.031-28.5-11.67c-7.558-7.42-11.709-17.314-11.709-28.025
	c0-10.54,4.151-20.383,11.709-27.854c7.591-7.639,17.776-11.67,28.5-11.67c10.716,0,20.952,4.031,28.501,11.67
	c7.592,7.476,11.871,17.318,11.871,27.854C100.338,86.867,96.059,96.763,88.467,104.183"/>
<path fill="#FD4F00" d="M148.189,40.102c-8.226,8.225-19.496,10.291-25.172,4.612c-5.675-5.674-3.61-16.946,4.604-25.171
	c8.226-8.221,19.497-10.288,25.172-4.609S156.415,31.877,148.189,40.102"/>
<path fill="#FD4F00" d="M138.177,71.543c-6.223-2.264-9.997-7.579-8.431-11.867c1.559-4.292,7.865-5.936,14.088-3.68
	c6.213,2.268,9.986,7.578,8.422,11.871C150.698,72.159,144.391,73.804,138.177,71.543"/>
<path fill="#FD4F00" d="M119.816,12.004c0,6.629-3.713,11.999-8.293,11.999c-4.578,0-8.293-5.375-8.293-11.999
	C103.23,5.375,106.945,0,111.523,0C116.096,0,119.816,5.37,119.816,12.004"/>
</svg>
