<?xml version="1.0" encoding="utf-8"?>
<!-- Generator: Adobe Illustrator 16.0.0, SVG Export Plug-In . SVG Version: 6.00 Build 0)  -->
<!DOCTYPE svg PUBLIC "-//W3C//DTD SVG 1.1//EN" "http://www.w3.org/Graphics/SVG/1.1/DTD/svg11.dtd">
<svg version="1.1" id="Layer_1" xmlns="http://www.w3.org/2000/svg" xmlns:xlink="http://www.w3.org/1999/xlink" x="0px" y="0px"
	 width="100px" height="15px" viewBox="0 0 100 15" enable-background="new 0 0 100 15" xml:space="preserve">
<path fill="#B4B4B4" d="M34.813,7.501c0,3.595-2.913,6.508-6.509,6.508c-3.595,0-6.509-2.913-6.509-6.508
	c0-3.596,2.914-6.51,6.509-6.51C31.9,0.991,34.813,3.905,34.813,7.501"/>
<g>
	<path fill="#B4B4B4" d="M13.018,7.501c0,3.595-2.913,6.508-6.509,6.508C2.914,14.009,0,11.096,0,7.501
		c0-3.596,2.914-6.51,6.509-6.51C10.105,0.991,13.018,3.905,13.018,7.501"/>
	<g>
		<g>
			<g>
				<g>
					<g>
						<defs>
							<path id="SVGID_1_" d="M13.018,7.501c0,3.595-2.913,6.508-6.509,6.508C2.913,14.009,0,11.096,0,7.501
								c0-3.596,2.913-6.51,6.509-6.51C10.105,0.991,13.018,3.905,13.018,7.501"/>
						</defs>
						<clipPath id="SVGID_2_">
							<use xlink:href="#SVGID_1_"  overflow="visible"/>
						</clipPath>
						<rect x="0.001" y="7.501" clip-path="url(#SVGID_2_)" fill="#323232" width="13.018" height="6.655"/>
					</g>
				</g>
			</g>
		</g>
	</g>
</g>
<circle fill="#B4B4B4" cx="71.695" cy="7.5" r="6.509"/>
<circle fill="#B4B4B4" cx="50" cy="7.5" r="6.509"/>
<circle fill="#B4B4B4" cx="93.391" cy="7.5" r="6.509"/>
</svg>
