<?xml version="1.0" encoding="utf-8"?>
<!-- Generator: Adobe Illustrator 16.0.0, SVG Export Plug-In . SVG Version: 6.00 Build 0)  -->
<!DOCTYPE svg PUBLIC "-//W3C//DTD SVG 1.1//EN" "http://www.w3.org/Graphics/SVG/1.1/DTD/svg11.dtd">
<svg version="1.1" id="Layer_1" xmlns="http://www.w3.org/2000/svg" xmlns:xlink="http://www.w3.org/1999/xlink" x="0px" y="0px"
	 width="640px" height="90px" viewBox="0 0 640 90" enable-background="new 0 0 640 90" xml:space="preserve">
<g>
	<g>
		<g>
			<rect x="0.464" y="10.673" fill="#808080" width="12.582" height="68.722"/>
			<polygon fill="#808080" points="86.505,10.683 86.505,79.388 75.214,79.388 37.211,30.661 37.211,79.388 24.635,79.388 
				24.635,10.683 37.565,10.683 74.271,57.718 74.271,10.683 			"/>
			<path fill="#808080" d="M156.915,30.96c-1.592-3.756-3.927-7.06-6.85-9.854c-10.874-10.236-27.169-10.437-29.898-10.437H97.879
				v68.722h22.647c3.309,0,19.087-0.577,29.637-10.623c2.92-2.795,5.16-6.099,6.751-9.854c1.755-4.075,2.631-8.793,2.631-13.832
				C159.546,39.851,158.67,35.136,156.915,30.96 M145.717,54.132c-0.911,2.149-2.274,4.118-3.995,5.811
				c-7.595,7.253-20.483,7.101-20.839,7.101h-9.867V22.306h9.867c0.098,0,3.276-0.093,7.53,0.708
				c3.894,0.738,9.255,2.433,13.212,6.187c1.722,1.607,3.085,3.668,3.995,5.913c1.17,2.601,1.72,6.47,1.72,9.97
				C147.339,48.483,146.789,51.533,145.717,54.132"/>
			<path fill="#808080" d="M341.374,58.767l8.212,8.09c-2.523,3.056-5.584,5.662-9.066,7.663
				c-5.383,3.136-11.507,4.868-17.733,4.868c-4.768,0-9.282-0.974-13.568-2.77c-4.236-1.717-7.982-4.178-11.135-7.424
				c-3.234-3.148-5.737-6.869-7.455-11.03c-1.825-4.301-2.767-8.755-2.767-13.444c0-4.766,0.942-9.218,2.767-13.519
				c1.717-4.175,4.223-7.903,7.455-11.027c3.156-3.251,6.899-5.725,11.135-7.427c2.182-0.911,4.441-1.609,6.761-2.091
				c2.197-0.435,4.484-0.666,6.807-0.666c1.392,0,2.8,0.09,4.19,0.269c4.005,0.465,7.884,1.609,11.507,3.435
				c4.703,2.365,7.829,4.625,11.108,8.8l-8.216,8.044c-2.134-2.751-4.881-5.028-8.042-6.666c-3.372-1.609-6.899-2.46-10.548-2.46
				c-6.33,0-12.147,2.367-16.553,6.852c-4.484,4.356-6.897,10.179-6.897,16.45c0,6.204,2.41,12.02,6.897,16.381
				c4.409,4.484,10.231,6.854,16.553,6.854c4.125,0,8.313-1.147,11.894-3.219C337.286,63.161,339.561,61.149,341.374,58.767"/>
			<path fill="#808080" d="M421.344,31.274c-1.737-4.166-4.341-7.889-7.547-11.015c-3.27-3.249-7.025-5.71-11.198-7.415
				c-4.363-1.798-8.983-2.745-13.739-2.745c-4.72,0-9.372,0.947-13.703,2.745c-4.173,1.705-7.959,4.166-11.233,7.415
				c-3.176,3.126-5.715,6.849-7.542,11.015c-1.833,4.291-2.702,8.732-2.702,13.41c0,4.765,0.869,9.214,2.702,13.505
				c1.827,4.165,4.36,7.889,7.542,11.013c3.274,3.254,7.061,5.717,11.233,7.414c4.333,1.8,8.983,2.776,13.703,2.776
				c4.756,0,9.376-0.977,13.739-2.776c4.173-1.697,7.929-4.16,11.198-7.414c3.203-3.124,5.81-6.848,7.547-11.013
				c1.858-4.291,2.822-8.737,2.822-13.505C424.164,40.009,423.199,35.563,421.344,31.274 M405.584,61.122
				c-4.432,4.481-10.438,6.847-16.725,6.847s-12.265-2.365-16.722-6.847c-4.432-4.349-6.864-10.153-6.864-16.443
				c0-6.184,2.433-11.958,6.864-16.342c4.454-4.475,10.435-6.848,16.722-6.848s12.293,2.373,16.725,6.848
				c4.451,4.386,6.968,10.161,6.968,16.342C412.552,50.964,410.038,56.769,405.584,61.122"/>
			<path fill="#808080" d="M261.865,10.683h-13.702l-24.781,57.394l-4.903,11.304h13.149l6.4-14.478h34.385l6.297,14.478h12.868
				L261.865,10.683z M242.563,54.544l12.651-29.122l12.697,29.122H242.563z"/>
			<path fill="#808080" d="M224.384,69.895l-13.355-19.968c2.913-0.673,6.543-2.146,9.559-5.039c1.752-1.732,3.148-3.658,4.02-5.998
				c0.966-2.413,1.557-5.2,1.557-8.313c0-7.924-3.827-14.206-10.641-17.493c-4.791-2.305-9.393-2.413-9.976-2.413h-40.611v68.72
				h12.704V21.302h27.81c0.193,0,2.85,0.1,5.385,1.343c3.106,1.549,4.6,4.072,4.6,7.924c0,3.023-0.813,5.14-2.373,6.688
				c-2.614,2.499-7.033,2.592-7.419,2.592h-16.671l27.726,39.542h14.038L224.384,69.895z"/>
		</g>
		<path fill="#808080" d="M440.627,23.526c-4.826,4.825-11.439,6.043-14.769,2.711c-3.329-3.329-2.119-9.942,2.701-14.768
			c4.826-4.823,11.439-6.041,14.769-2.704C446.657,12.094,445.452,18.7,440.627,23.526"/>
		<path fill="#808080" d="M434.752,41.973c-3.651-1.333-5.865-4.446-4.946-6.963c0.908-2.518,4.614-3.482,8.265-2.164
			c3.646,1.336,5.855,4.446,4.941,6.965C442.093,42.334,438.395,43.298,434.752,41.973"/>
		<path fill="#808080" d="M423.978,7.043c0,3.889-2.179,7.035-4.865,7.035s-4.869-3.154-4.869-7.035
			c0-3.895,2.183-7.043,4.869-7.043C421.794-0.002,423.978,3.148,423.978,7.043"/>
		<g>
			<path fill="#808080" d="M471.947,9.996h22.747c6.217,0,11.385,0.972,15.493,2.922c4.12,1.946,7.401,4.542,9.869,7.77
				c2.461,3.242,4.193,6.937,5.196,11.084c1.005,4.141,1.509,8.418,1.509,12.825c0,4.926-0.632,9.505-1.896,13.758
				c-1.263,4.233-3.227,7.917-5.873,11.025c-2.661,3.115-6.013,5.559-10.063,7.336c-4.048,1.78-8.862,2.673-14.432,2.673H471.95
				V9.996H471.947z M494.883,75.695c3.246,0,6.495-0.5,9.768-1.504c3.277-1.01,6.232-2.694,8.889-5.06
				c2.659-2.365,4.82-5.538,6.476-9.53c1.645-3.977,2.476-8.978,2.476-15.009c0-4.73-0.479-8.78-1.409-12.149
				c-0.938-3.375-2.179-6.202-3.695-8.506c-1.529-2.302-3.271-4.112-5.253-5.436c-1.979-1.336-4.018-2.35-6.121-3.07
				c-2.104-0.71-4.217-1.177-6.318-1.406c-2.102-0.224-4.003-0.342-5.68-0.342h-17.788V75.69L494.883,75.695L494.883,75.695z"/>
			<path fill="#808080" d="M536.768,9.996h46.65v3.698h-42.369v27.798h39.844v3.698h-39.844v30.512h42.859v3.693h-47.136V9.996
				H536.768z"/>
			<path fill="#808080" d="M611.989,75.695h0.186l24.007-65.704h4.278l-25.953,69.392h-4.948L583.702,9.994h4.468L611.989,75.695z"
				/>
		</g>
	</g>
	<rect fill="none" width="640" height="90"/>
</g>
</svg>
