<?xml version="1.0" encoding="utf-8"?>
<!-- Generator: Adobe Illustrator 16.0.0, SVG Export Plug-In . SVG Version: 6.00 Build 0)  -->
<!DOCTYPE svg PUBLIC "-//W3C//DTD SVG 1.1//EN" "http://www.w3.org/Graphics/SVG/1.1/DTD/svg11.dtd">
<svg version="1.1" id="Layer_1" xmlns="http://www.w3.org/2000/svg" xmlns:xlink="http://www.w3.org/1999/xlink" x="0px" y="0px"
	 width="152px" height="152px" viewBox="164 164 152 152" enable-background="new 164 164 152 152" xml:space="preserve">
<g>
	<rect x="164" y="164" fill="#114835" width="152" height="152"/>
	<polygon fill="#FFFFFF" points="192.639,250.859 193.428,250.859 193.428,254.102 192.639,254.102 192.639,252.982 
		191.397,252.982 191.397,254.102 190.606,254.102 190.606,250.859 191.397,250.859 191.397,252.193 192.639,252.193 	"/>
	<path fill="#FFFFFF" d="M197.293,252.468c0,0.919-0.745,1.663-1.664,1.663c-0.915,0-1.664-0.744-1.664-1.663
		c0-0.915,0.749-1.664,1.664-1.664C196.549,250.804,197.293,251.553,197.293,252.468 M196.504,252.468
		c0-0.481-0.393-0.871-0.875-0.871c-0.478,0-0.874,0.39-0.874,0.871s0.396,0.874,0.874,0.874
		C196.111,253.342,196.504,252.949,196.504,252.468"/>
	<polygon fill="#FFFFFF" points="199.033,254.098 198.571,252.936 198.571,254.091 197.782,254.091 197.782,250.848 
		198.605,250.848 199.457,253.012 200.312,250.848 201.129,250.848 201.129,254.091 200.34,254.091 200.34,252.936 199.88,254.098 	
		"/>
	<polygon fill="#FFFFFF" points="201.848,250.852 204.39,250.852 204.39,251.645 202.639,251.645 202.639,252.078 204.008,252.078 
		204.008,252.867 202.639,252.867 202.639,253.3 204.39,253.3 204.39,254.092 201.848,254.092 	"/>
	<path fill="#FFFFFF" d="M207.34,251.776l0.011,0.031c0.063,0.108,0.167,0.146,0.276,0.182c0.246,0.078,0.506,0.138,0.746,0.237
		c0.099,0.041,0.197,0.095,0.284,0.152c0.128,0.09,0.238,0.199,0.308,0.34c0.132,0.252,0.12,0.564-0.01,0.819
		c-0.126,0.249-0.355,0.444-0.616,0.556c-0.262,0.111-0.555,0.141-0.832,0.121c-0.46-0.031-0.917-0.198-1.253-0.514l0.64-0.59
		c0.24,0.24,0.583,0.379,0.924,0.368c0.186-0.004,0.408-0.085,0.375-0.305c-0.004-0.019-0.008-0.032-0.014-0.04
		c-0.064-0.145-0.198-0.2-0.328-0.241c-0.203-0.07-0.422-0.115-0.624-0.184c-0.205-0.068-0.404-0.169-0.549-0.331
		c-0.153-0.164-0.231-0.384-0.231-0.608c0.004-0.222,0.093-0.444,0.245-0.608c0.163-0.187,0.396-0.296,0.637-0.362
		c0.299-0.085,0.614-0.089,0.918-0.029c0.311,0.063,0.605,0.198,0.857,0.396l-0.264,0.256c-0.116,0.117-0.24,0.234-0.362,0.35
		c-0.219-0.244-0.578-0.363-0.897-0.282C207.447,251.521,207.293,251.613,207.34,251.776"/>
	<polygon fill="#FFFFFF" points="212.38,250.852 212.38,251.641 211.354,251.641 211.354,254.098 210.565,254.098 210.565,251.641 
		209.543,251.641 209.543,250.852 	"/>
	<polygon fill="#FFFFFF" points="214.85,253.102 214.85,254.098 214.061,254.098 214.061,253.102 212.776,250.846 213.688,250.846 
		214.455,252.193 215.222,250.846 216.122,250.846 	"/>
	<polygon fill="#FFFFFF" points="217.399,253.306 219.198,253.306 219.198,254.098 216.607,254.098 216.607,250.852 
		217.399,250.852 	"/>
	<polygon fill="#FFFFFF" points="219.73,250.852 222.272,250.852 222.272,251.645 220.521,251.645 220.521,252.078 221.893,252.078 
		221.893,252.867 220.521,252.867 220.521,253.3 222.272,253.3 222.272,254.092 219.73,254.092 	"/>
	<path fill="#FFFFFF" d="M191.397,258.047c0,0.48,0.391,0.865,0.868,0.865c0.237,0,0.456-0.094,0.623-0.264l0.565,0.549
		c-0.315,0.326-0.737,0.508-1.188,0.508c-0.913,0-1.66-0.745-1.66-1.658c0-0.918,0.747-1.66,1.66-1.66
		c0.482,0,0.944,0.213,1.259,0.584l-0.597,0.515c-0.169-0.196-0.411-0.308-0.662-0.308
		C191.788,257.178,191.397,257.568,191.397,258.047"/>
	<path fill="#FFFFFF" d="M197.062,258.041c0,0.92-0.747,1.664-1.664,1.664s-1.663-0.744-1.663-1.664
		c0-0.913,0.746-1.664,1.663-1.664S197.062,257.128,197.062,258.041 M196.271,258.041c0-0.481-0.392-0.871-0.873-0.871
		c-0.478,0-0.873,0.39-0.873,0.871c0,0.482,0.396,0.875,0.873,0.875C195.879,258.916,196.271,258.523,196.271,258.041"/>
	<path fill="#FFFFFF" d="M200.788,258.041c0,0.92-0.747,1.664-1.664,1.664s-1.664-0.744-1.664-1.664
		c0-0.913,0.747-1.664,1.664-1.664S200.788,257.128,200.788,258.041 M199.995,258.041c0-0.481-0.39-0.871-0.871-0.871
		c-0.479,0-0.875,0.39-0.875,0.871c0,0.482,0.396,0.875,0.875,0.875C199.605,258.916,199.995,258.523,199.995,258.041"/>
	<polygon fill="#FFFFFF" points="202.866,257.754 204.119,259.672 203.178,259.672 202.329,258.382 202.108,258.642 
		202.108,259.672 201.317,259.672 201.317,256.434 202.108,256.434 202.108,257.421 202.956,256.422 203.989,256.422 	"/>
	<rect x="204.703" y="256.426" fill="#FFFFFF" width="0.791" height="3.238"/>
	<polygon fill="#FFFFFF" points="208.449,256.434 209.239,256.434 209.239,259.676 208.375,259.676 207.103,257.74 207.103,259.664 
		206.312,259.664 206.312,256.422 207.181,256.422 208.449,258.342 	"/>
	<path fill="#FFFFFF" d="M211.366,257.785h1.451v1.299l-0.111,0.117c-0.299,0.308-0.795,0.504-1.273,0.504
		c-0.917,0-1.66-0.741-1.66-1.658c0-0.914,0.743-1.658,1.66-1.658c0.481,0,0.939,0.211,1.258,0.582l-0.6,0.515
		c-0.167-0.196-0.408-0.308-0.658-0.308c-0.479,0-0.87,0.39-0.87,0.869c0,0.479,0.391,0.865,0.87,0.865
		c0.202,0,0.43-0.07,0.595-0.174v-0.164h-0.661V257.785L211.366,257.785z"/>
	<path fill="#FFFFFF" d="M216.396,228.531c0.43,1.067-0.854,8.634,0.556,8.89c1.282,0.212,2.524-4.147,2.524-4.147
		s0.211,0.088,0.682,0.342c-0.043,1.708-1.155,6.538-4.744,6.538c-1.753,0-2.994-2.093-2.905-3.633
		c-0.981,1.966-2.394,3.546-4.317,3.546c-3.418,0.046-4.83-5.17-1.669-9.573c1.669-2.346,4.447-2.648,5.516-1.495
		c1.067,1.156,1.067,2.308,1.112,1.968c0.256-1.753,0.426-2.819,0.426-2.819C213.532,228.148,215.841,227.502,216.396,228.531
		 M209.56,237.333c0.938,0.043,1.838-1.324,2.523-2.949c0.295-1.11,0.21-4.185-1.113-4.358
		C209.302,229.81,206.995,237.291,209.56,237.333"/>
	<path fill="#FFFFFF" d="M222.463,230.923c0.171,0.6,0.128,1.839,0.086,3.078c0.771-3.078,2.523-7.479,5.514-6.453
		c3.076,0.554,1.282,9.315,2.18,9.699c1.026,0.302,2.307-4.018,2.353-4.018c0.039,0,0.725,0.173,0.725,0.173
		s-1.154,6.241-3.717,6.581c-2.566,0.428-3.764-1.623-3.419-4.788c0.256-2.863,0.767-5.041,0.427-5.17
		c-1.11-0.383-2.822,5.811-3.291,7.862l-0.215,0.601c-0.341,0.982-0.642,1.282-1.367,1.412c-0.942,0.254-1.879-0.345-2.31-1.496
		c-0.767-2.181,0.345-8.423,0.301-8.423C219.688,229.982,221.992,229.17,222.463,230.923"/>
	<path fill="#FFFFFF" d="M244.43,239.17c0.73,0.812-0.812,1.753-2.178,1.453c-1.283-0.339-2.736-1.321-3.079-4.87
		c-0.896,2.991-2.649,4.53-4.788,4.058c-2.775-0.556-3.418-4.485-1.067-8.077c1.879-2.904,4.66-2.692,5.985-1.28
		c0.298-5.044,1.41-11.37,3.161-12.268c1.623-0.896,3.638,0.685,3.846,1.84c0.729,3.076-2.177,7.051-3.332,9.489
		c-0.216,3.33,0.214,9.229,1.281,9.655H244.43z M236.227,237.463c0.938,0.085,2.222-2.734,2.646-4.829
		c-0.168-0.685-0.98-3.12-2.392-0.385C235.415,234.341,234.9,237.377,236.227,237.463 M244.43,220.109
		c-0.213-0.212-0.467,0.429-0.64,1.368c-0.513,1.965-0.813,3.507-0.898,5.387C243.66,224.984,244.898,220.665,244.43,220.109"/>
	<path fill="#FFFFFF" d="M256.777,228.531c0.426,1.067-0.855,8.634,0.558,8.89c1.28,0.212,2.521-4.147,2.521-4.147
		s0.214,0.088,0.685,0.342c-0.045,1.708-1.155,6.538-4.746,6.538c-1.753,0-2.99-2.093-2.904-3.633
		c-0.984,1.966-2.393,3.546-4.318,3.546c-3.418,0.046-4.83-5.17-1.669-9.573c1.669-2.346,4.447-2.648,5.519-1.495
		c1.064,1.156,1.064,2.308,1.111,1.968c0.252-1.753,0.424-2.819,0.424-2.819C253.916,228.148,256.224,227.502,256.777,228.531
		 M249.94,237.333c0.938,0.043,1.84-1.324,2.523-2.949c0.295-1.11,0.211-4.185-1.113-4.358
		C249.683,229.81,247.376,237.291,249.94,237.333"/>
	<path fill="#FFFFFF" d="M262.844,230.923c0.175,0.6,0.13,1.839,0.085,3.078c0.771-3.078,2.522-7.479,5.515-6.453
		c3.076,0.554,1.286,9.315,2.181,9.699c1.025,0.302,2.306-4.018,2.352-4.018c0.039,0,0.726,0.173,0.726,0.173
		s-1.155,6.241-3.718,6.581c-2.566,0.428-3.765-1.623-3.419-4.788c0.258-2.863,0.768-5.041,0.429-5.17
		c-1.111-0.383-2.823,5.811-3.292,7.862l-0.214,0.601c-0.345,0.982-0.643,1.282-1.371,1.412c-0.939,0.254-1.879-0.345-2.307-1.496
		c-0.768-2.181,0.343-8.423,0.304-8.423C260.066,229.982,262.373,229.17,262.844,230.923"/>
	<path fill="#FFFFFF" d="M205.265,232.796c-1.117,0.015-2.616,0.032-3.645,0.034c0.409-0.509,0.82-1.07,1.243-1.715
		c3.628-5.525,5.43-17.86-0.279-19.008c-3.084-0.594-5.831,3.627-7.823,8.406l-0.054-1.017c-0.223-1.668-0.606-2.687-6.689-1.471
		c0,0-6.511,1.403-9.738,3.146c-1.486,1.851-1.177,4.545-0.27,5.955c0.301,0.462,1.012,0.797,1.311,0.431
		c3.81-4.71,9.75-8.167,11.656-8.286c0.41,1.946-1.584,7.282-2.16,9.601c-0.409,1.713-0.828,3.569-1.163,5.377
		c-0.532,2.966-0.897,5.844-0.914,7.881c-0.06,8.161,7.353,3.279,6.314,2.675c-0.318-0.186-0.509-0.508-0.676-1.063
		c-0.646-2.176-0.396-5.793,0.197-9.549c0.164-1.204,0.319-2.272,0.52-3.336c0.626-2.459,1.623-5.473,3.253-9.23
		c2.13-4.918,4.327-7.797,5.159-7.752c0.826,0.044,0.859,4.403-0.357,10.06c-1.226,5.658-3.141,8.72-3.141,8.72
		s-0.708,0.002-2.758,0.145c-2.053,0.143-3.756,1.953-1.941,3.433c1.338,1.112,3.706,1.2,6.552-1.448
		c1.341-0.072,3.582-0.198,5.059-0.404L205.265,232.796z"/>
	<path fill="#FFFFFF" d="M279.93,258.805c0.729,0.813-0.812,1.753-2.175,1.455c-1.283-0.344-2.737-1.326-3.08-4.872
		c-0.894,2.991-2.649,4.528-4.786,4.058c-2.775-0.556-3.417-4.484-1.065-8.074c1.883-2.904,4.656-2.691,5.983-1.279
		c0.296-5.044,1.406-11.368,3.161-12.263c1.623-0.898,3.628,0.683,3.841,1.836c0.73,3.075-2.176,7.048-3.33,9.485
		c-0.215,3.332,0.213,9.229,1.28,9.654H279.93L279.93,258.805z M271.73,257.098c0.939,0.084,2.222-2.736,2.645-4.828
		c-0.171-0.684-0.98-3.119-2.389-0.386C270.917,253.979,270.404,257.013,271.73,257.098 M279.93,239.75
		c-0.212-0.212-0.465,0.427-0.641,1.369c-0.51,1.961-0.811,3.503-0.897,5.382C279.162,244.623,280.4,240.306,279.93,239.75"/>
	<path fill="#FFFFFF" d="M283.702,253.038c-0.261,2.179-0.043,4.144,1.621,4.014c2.181-0.171,3.59-4.143,3.59-4.143
		s0.212,0.044,0.767,0.386c0.514,0.428-1.58,6.877-5.938,6.195c-3.331-0.426-4.784-4.229-2.817-8.631
		c1.669-3.549,4.744-4.959,6.536-3.202c1.623,1.579-0.302,3.542-1.026,4.054C285.711,252.396,284.727,252.738,283.702,253.038
		 M283.999,251.711c2.01-0.727,3.075-3.115,1.878-3.331C285.193,248.209,284.514,249.662,283.999,251.711"/>
	<path fill="#FFFFFF" d="M291.905,250.561c0.17,0.6,0.124,1.837,0.085,3.074c0.767-3.074,2.52-7.475,5.509-6.447
		c3.076,0.552,1.284,9.309,2.181,9.695c1.025,0.299,2.306-4.019,2.35-4.019c0.041,0,0.727,0.175,0.727,0.175
		s-1.156,6.236-3.718,6.578c-2.563,0.429-3.759-1.624-3.416-4.787c0.256-2.86,0.768-5.037,0.429-5.172
		c-1.114-0.379-2.824,5.814-3.293,7.864l-0.209,0.601c-0.35,0.982-0.644,1.281-1.371,1.408c-0.941,0.256-1.881-0.341-2.307-1.494
		c-0.771-2.18,0.34-8.419,0.3-8.419C289.125,249.617,291.437,248.808,291.905,250.561"/>
	<path fill="#FFFFFF" d="M268.053,252.867c0.044,0.383-1.11,4.187-2.563,4.144c-1.71-0.044-0.212-3.546-0.939-5.04
		c-0.813-1.668-3.76-2.223-3.63-2.264c0.085-0.045,1.409-3.762-0.942-3.803c-1.624-0.044-2.009,1.238-2.136,2.346
		c-0.13,1.242,0.386,1.753,1.196,2.053c-0.153,0.242-1.899,4.768-1.899,4.768c-0.468,1.063-1.096,2.093-1.734,1.983
		c-1.41-0.257-0.127-7.819-0.556-8.888c-0.554-1.023-2.86-0.383-2.817-0.383c0,0-0.173,1.068-0.43,2.816
		c-0.041,0.346-0.041-0.807-1.108-1.963c-1.069-1.152-3.847-0.854-5.513,1.497c-3.161,4.401-1.753,9.614,1.666,9.568
		c1.923,0,3.331-1.579,4.315-3.547c-0.085,1.54,1.154,3.636,2.907,3.636c1.931,0,3.128-1.408,3.843-2.969l0.289-0.667
		c0.011-0.032,0.028-0.069,0.041-0.103l1.896-4.696c0.132-0.259,0.256-0.5,0.339-0.667c0.087,0,0.214,0.043,0.299,0.043
		c2.649,0.852,0.728,3.374,0.43,5.424c-0.26,1.627,0.637,3.294,2.732,3.461c3.801,0.3,5-4.995,5.211-6.151
		C269.079,252.693,268.053,252.738,268.053,252.867 M250.535,254.021c-0.685,1.627-1.583,2.989-2.518,2.946
		c-2.566-0.041-0.258-7.52,1.407-7.305C250.75,249.832,250.833,252.912,250.535,254.021"/>
	<path fill="#FFFFFF" d="M244.402,254.736c-0.348-0.282-0.867-0.186-0.927-0.176l-0.169,0.037l-0.021,0.167
		c-0.004,0.015-0.19,1.337-0.634,2.564c-0.137,0.39-0.35,0.761-0.563,1.075c-0.218-1.875-0.601-3.354-0.817-3.81
		c-0.448-1.012-1.561-0.718-1.929-0.622c-0.039,0.007-0.068,0.018-0.068,0.018h-0.247l0.006,0.253c0.045,1.89-0.82,3.895-2.21,5.11
		c-0.752,0.66-1.998,1.382-3.669,1.123c-1.986-0.314-3.095-2.085-3.045-4.854c0.08-4.23,3.217-10.496,8.146-11.101
		c0.865-0.104,1.653,0.089,2.105,0.516c0.308,0.284,0.446,0.663,0.421,1.115c-0.167,2.923-2.515,4.19-3.518,4.599
		c-0.011,0.004-0.021,0.011-0.038,0.015c-0.439,0.019-0.579,0.233-0.625,0.362c-0.081,0.245,0.046,0.527,0.345,0.757
		c0.541,0.419,1.937,0.808,3.73-0.38c1.276-0.847,2.099-2.5,2.095-4.208c-0.004-1.59-0.728-2.976-1.989-3.81
		c-2.942-1.941-8.628-0.411-12.677,5.443c-1.91,2.762-2.992,7.502-1.237,10.848c0.747,1.423,2.333,3.116,5.657,3.116
		c2.633,0,4.98-1.237,6.446-3.36c-0.032,0.506-0.071,1.016-0.113,1.526c-0.161,0.104-0.345,0.215-0.534,0.333
		c-0.926,0.578-2.078,1.294-2.724,1.979c-1.076,1.146-1.111,2.124-0.952,2.745c0.218,0.846,0.923,1.535,1.89,1.846
		c0.404,0.138,0.853,0.221,1.31,0.221c1.406,0,2.913-0.762,3.701-2.978c0.457-1.278,0.68-2.808,0.659-4.543
		c1.864-1.667,2.474-4.478,2.474-5.273C244.682,255.039,244.529,254.84,244.402,254.736 M237.063,264.578
		c0.357-0.593,0.965-1.213,1.576-1.623c-0.283,1.642-0.872,2.69-1.338,2.99c-0.144,0.093-0.277,0.121-0.4,0.082
		c-0.215-0.074-0.256-0.186-0.267-0.223C236.582,265.668,236.573,265.322,237.063,264.578 M237.288,251.008L237.288,251.008
		L237.288,251.008z"/>
</g>
</svg>
