<?xml version="1.0" encoding="utf-8"?>
<!-- Generator: Adobe Illustrator 16.0.0, SVG Export Plug-In . SVG Version: 6.00 Build 0)  -->
<!DOCTYPE svg PUBLIC "-//W3C//DTD SVG 1.1//EN" "http://www.w3.org/Graphics/SVG/1.1/DTD/svg11.dtd">
<svg version="1.1" id="Layer_1" xmlns="http://www.w3.org/2000/svg" xmlns:xlink="http://www.w3.org/1999/xlink" x="0px" y="0px"
	 width="289.214px" height="34.77px" viewBox="0 0 289.214 34.77" enable-background="new 0 0 289.214 34.77" xml:space="preserve">
<g>
	<g>
		<rect y="4.153" fill="#565656" width="4.894" height="26.729"/>
		<polygon fill="#565656" points="33.466,4.156 33.466,30.879 29.074,30.879 14.293,11.927 14.293,30.879 9.402,30.879 9.402,4.156 
			14.431,4.156 28.707,22.45 28.707,4.156 		"/>
		<path fill="#565656" d="M60.852,12.043c-0.619-1.461-1.528-2.746-2.664-3.833c-4.23-3.981-10.568-4.06-11.629-4.06H37.89V30.88
			h8.808c1.288,0,7.424-0.225,11.528-4.132c1.136-1.087,2.007-2.372,2.626-3.833c0.682-1.585,1.023-3.42,1.023-5.38
			C61.875,15.501,61.534,13.667,60.852,12.043 M56.496,21.056c-0.354,0.836-0.884,1.602-1.553,2.26
			c-2.954,2.821-7.967,2.762-8.106,2.762h-3.838v-17.4h3.838c0.038,0,1.275-0.036,2.929,0.275c1.515,0.287,3.599,0.946,5.139,2.406
			c0.669,0.625,1.2,1.427,1.553,2.3c0.455,1.012,0.669,2.517,0.669,3.878C57.127,18.859,56.913,20.045,56.496,21.056"/>
		<path fill="#565656" d="M132.596,22.859l3.195,3.146c-0.981,1.188-2.172,2.202-3.526,2.98c-2.094,1.22-4.476,1.894-6.899,1.894
			c-1.854,0-3.61-0.379-5.277-1.077c-1.647-0.668-3.104-1.625-4.331-2.888c-1.258-1.225-2.231-2.672-2.899-4.29
			c-0.71-1.673-1.077-3.405-1.077-5.229c0-1.854,0.367-3.585,1.077-5.258c0.668-1.624,1.642-3.074,2.899-4.289
			c1.228-1.265,2.684-2.227,4.331-2.889c0.849-0.354,1.728-0.626,2.63-0.813c0.854-0.169,1.744-0.259,2.647-0.259
			c0.541,0,1.089,0.035,1.63,0.104c1.558,0.181,3.067,0.626,4.476,1.336c1.829,0.92,3.044,1.799,4.32,3.423l-3.195,3.129
			c-0.83-1.07-1.9-1.956-3.128-2.593c-1.312-0.626-2.684-0.957-4.103-0.957c-2.461,0-4.724,0.921-6.438,2.665
			c-1.744,1.694-2.683,3.959-2.683,6.398c0,2.413,0.938,4.675,2.683,6.371c1.715,1.744,3.979,2.666,6.438,2.666
			c1.605,0,3.235-0.446,4.626-1.252C131.007,24.568,131.892,23.785,132.596,22.859"/>
		<path fill="#565656" d="M163.701,12.165c-0.674-1.62-1.688-3.068-2.934-4.284c-1.273-1.264-2.734-2.221-4.357-2.884
			c-1.697-0.699-3.494-1.067-5.342-1.067c-1.836,0-3.646,0.368-5.33,1.067c-1.624,0.663-3.096,1.62-4.371,2.884
			c-1.235,1.216-2.222,2.664-2.933,4.284c-0.713,1.669-1.05,3.396-1.05,5.216c0,1.854,0.337,3.584,1.05,5.253
			c0.711,1.62,1.697,3.068,2.933,4.283c1.274,1.266,2.747,2.224,4.371,2.884c1.684,0.7,3.494,1.08,5.33,1.08
			c1.848,0,3.645-0.38,5.342-1.08c1.623-0.66,3.084-1.618,4.357-2.884c1.246-1.215,2.26-2.663,2.934-4.283
			c0.723-1.669,1.098-3.398,1.098-5.253C164.798,15.563,164.423,13.833,163.701,12.165 M157.572,23.775
			c-1.723,1.743-4.059,2.663-6.504,2.663c-2.447,0-4.771-0.92-6.504-2.663c-1.724-1.691-2.671-3.949-2.671-6.396
			c0-2.405,0.947-4.651,2.671-6.356c1.732-1.74,4.057-2.663,6.504-2.663c2.445,0,4.781,0.923,6.504,2.663
			c1.732,1.706,2.709,3.952,2.709,6.356C160.281,19.823,159.304,22.081,157.572,23.775"/>
		<path fill="#565656" d="M101.672,4.156h-5.329L86.704,26.48l-1.907,4.396h5.114l2.49-5.631h13.374l2.449,5.631h5.005
			L101.672,4.156z M94.164,21.216l4.921-11.327l4.939,11.327H94.164z"/>
		<path fill="#565656" d="M87.094,27.187L81.9,19.42c1.132-0.262,2.545-0.835,3.717-1.96c0.682-0.674,1.225-1.423,1.564-2.333
			c0.376-0.938,0.605-2.022,0.605-3.233c0-3.082-1.488-5.525-4.138-6.804c-1.864-0.896-3.654-0.938-3.88-0.938H63.972V30.88h4.941
			V8.286H79.73c0.075,0,1.108,0.039,2.094,0.522c1.208,0.603,1.79,1.584,1.79,3.082c0,1.176-0.317,1.999-0.923,2.602
			c-1.017,0.972-2.736,1.008-2.886,1.008h-6.484l10.784,15.38h5.46L87.094,27.187z"/>
		<path fill="#565656" d="M171.201,9.152c-1.877,1.877-4.449,2.351-5.744,1.055c-1.295-1.295-0.824-3.867,1.051-5.744
			c1.877-1.876,4.449-2.35,5.744-1.052C173.546,4.705,173.078,7.275,171.201,9.152"/>
		<path fill="#565656" d="M168.916,16.326c-1.42-0.519-2.281-1.729-1.924-2.708c0.355-0.979,1.795-1.354,3.215-0.842
			c1.418,0.52,2.279,1.729,1.922,2.709C171.773,16.467,170.333,16.842,168.916,16.326"/>
		<path fill="#565656" d="M164.726,2.74c0,1.513-0.848,2.736-1.893,2.736S160.94,4.25,160.94,2.74c0-1.515,0.849-2.739,1.894-2.739
			C163.876,0,164.726,1.226,164.726,2.74"/>
		<path fill="#565656" d="M196.742,11.866c-0.048-1.106-0.281-2.067-0.701-2.889c-0.424-0.813-0.994-1.504-1.715-2.057
			c-0.724-0.556-1.584-0.97-2.582-1.244c-0.998-0.276-2.084-0.417-3.266-0.417c-0.721,0-1.497,0.085-2.324,0.252
			c-0.832,0.171-1.602,0.464-2.313,0.884c-0.707,0.427-1.293,0.986-1.75,1.696c-0.455,0.712-0.688,1.596-0.688,2.652
			c0,1.036,0.257,1.876,0.761,2.522c0.506,0.65,1.166,1.174,1.982,1.569c0.813,0.396,1.757,0.718,2.813,0.957
			c1.062,0.238,2.129,0.468,3.213,0.686c1.104,0.221,2.183,0.479,3.229,0.774c1.045,0.303,1.983,0.71,2.813,1.229
			c0.83,0.52,1.496,1.188,2.004,2.021c0.506,0.831,0.759,1.871,0.759,3.122c0,1.349-0.288,2.479-0.867,3.393
			c-0.573,0.916-1.304,1.658-2.183,2.236s-1.854,0.992-2.922,1.245c-1.07,0.252-2.101,0.378-3.088,0.378
			c-1.515,0-2.937-0.16-4.258-0.486c-1.324-0.326-2.479-0.854-3.466-1.588c-0.985-0.729-1.762-1.678-2.323-2.831
			c-0.564-1.154-0.838-2.563-0.813-4.224h1.589c-0.07,1.419,0.133,2.616,0.611,3.591c0.479,0.974,1.148,1.773,2.005,2.398
			c0.854,0.627,1.856,1.076,3.013,1.354c1.154,0.275,2.369,0.413,3.646,0.413c0.771,0,1.596-0.097,2.474-0.286
			c0.878-0.194,1.685-0.519,2.417-0.977s1.35-1.063,1.841-1.809c0.49-0.743,0.74-1.684,0.74-2.813c0-1.084-0.253-1.969-0.763-2.651
			c-0.504-0.688-1.172-1.239-2-1.659c-0.83-0.422-1.771-0.757-2.813-1.01c-1.046-0.252-2.123-0.487-3.229-0.705
			c-1.078-0.218-2.149-0.47-3.209-0.757c-1.062-0.288-1.996-0.68-2.813-1.173c-0.813-0.492-1.479-1.131-1.981-1.914
			c-0.506-0.78-0.758-1.785-0.758-3.013c0-1.229,0.258-2.279,0.772-3.157c0.521-0.878,1.188-1.589,2.021-2.129
			c0.827-0.54,1.762-0.938,2.795-1.191c1.032-0.252,2.059-0.378,3.064-0.378c1.35,0,2.604,0.151,3.771,0.451
			c1.168,0.303,2.188,0.771,3.066,1.406c0.879,0.636,1.583,1.462,2.111,2.474c0.525,1.01,0.826,2.226,0.898,3.645L196.742,11.866
			L196.742,11.866z"/>
		<path fill="#565656" d="M199.64,5.875V4.504h19.738v1.371h-9.096v24.394h-1.591V5.875H199.64z"/>
		<path fill="#565656" d="M245.221,17.385c0,1.877-0.275,3.64-0.827,5.285c-0.557,1.647-1.354,3.08-2.398,4.296
			c-1.049,1.214-2.328,2.171-3.845,2.869c-1.517,0.696-3.233,1.045-5.159,1.045s-3.646-0.349-5.177-1.045
			c-1.53-0.698-2.813-1.655-3.86-2.869c-1.049-1.216-1.848-2.646-2.396-4.296c-0.557-1.646-0.83-3.408-0.83-5.285
			c0-1.876,0.273-3.638,0.83-5.284c0.553-1.646,1.354-3.08,2.396-4.293c1.047-1.217,2.33-2.17,3.86-2.869
			c1.526-0.696,3.251-1.048,5.177-1.048s3.646,0.352,5.159,1.048c1.517,0.699,2.796,1.652,3.845,2.869
			c1.047,1.213,1.844,2.646,2.398,4.293C244.946,13.749,245.221,15.51,245.221,17.385z M222.312,17.385
			c0,1.659,0.236,3.226,0.721,4.692c0.479,1.465,1.182,2.748,2.094,3.841c0.914,1.097,2.031,1.967,3.355,2.616
			c1.32,0.646,2.823,0.975,4.51,0.975c1.684,0,3.182-0.324,4.492-0.975c1.313-0.649,2.424-1.521,3.336-2.616
			c0.916-1.093,1.612-2.376,2.096-3.841c0.479-1.471,0.725-3.033,0.725-4.692c0-1.658-0.241-3.221-0.725-4.688
			c-0.48-1.471-1.18-2.748-2.096-3.847c-0.912-1.096-2.023-1.968-3.336-2.616c-1.313-0.646-2.811-0.975-4.492-0.975
			c-1.687,0-3.188,0.325-4.51,0.975c-1.324,0.648-2.441,1.521-3.355,2.616c-0.912,1.099-1.609,2.376-2.094,3.847
			C222.548,14.166,222.312,15.727,222.312,17.385z"/>
		<path fill="#565656" d="M247.994,4.504h10.752c1.131,0,2.188,0.114,3.176,0.345c0.986,0.229,1.854,0.604,2.601,1.117
			c0.746,0.519,1.33,1.198,1.75,2.038c0.421,0.844,0.632,1.893,0.632,3.141c0,1.731-0.484,3.193-1.462,4.384
			c-0.976,1.191-2.323,1.935-4.062,2.223v0.073c1.181,0.144,2.111,0.452,2.795,0.937c0.688,0.481,1.199,1.072,1.537,1.77
			c0.334,0.698,0.554,1.471,0.647,2.313c0.095,0.844,0.146,1.684,0.146,2.525c0,0.505,0,0.997,0,1.479
			c0,0.482,0.022,0.932,0.07,1.354c0.049,0.424,0.125,0.813,0.232,1.176c0.109,0.359,0.26,0.66,0.453,0.898h-1.77
			c-0.34-0.603-0.521-1.305-0.563-2.108c-0.034-0.808-0.056-1.645-0.056-2.51c0-0.864-0.035-1.729-0.106-2.576
			c-0.072-0.854-0.302-1.618-0.687-2.293c-0.388-0.676-0.992-1.215-1.822-1.624c-0.829-0.408-2.004-0.613-3.52-0.613h-9.164v11.72
			h-1.589V4.504H247.994z M258.746,17.169c0.938,0,1.813-0.111,2.616-0.341c0.806-0.229,1.498-0.585,2.073-1.065
			c0.578-0.479,1.037-1.093,1.371-1.839c0.338-0.746,0.506-1.636,0.506-2.672c0-0.96-0.18-1.785-0.541-2.476
			c-0.359-0.686-0.844-1.239-1.441-1.677c-0.602-0.433-1.301-0.746-2.094-0.938c-0.793-0.193-1.624-0.291-2.49-0.291h-9.164v11.294
			L258.746,17.169L258.746,17.169z"/>
		<path fill="#565656" d="M271.712,4.504h17.32v1.371h-15.73v10.318h14.793v1.371h-14.793v11.329h15.912v1.371h-17.502V4.504
			L271.712,4.504z"/>
	</g>
	<rect y="0" fill="none" width="289.214" height="34.77"/>
</g>
</svg>
