<?xml version="1.0" encoding="utf-8"?>
<!-- Generator: Adobe Illustrator 16.0.0, SVG Export Plug-In . SVG Version: 6.00 Build 0)  -->
<!DOCTYPE svg PUBLIC "-//W3C//DTD SVG 1.1//EN" "http://www.w3.org/Graphics/SVG/1.1/DTD/svg11.dtd">
<svg version="1.1" id="Layer_1" xmlns="http://www.w3.org/2000/svg" xmlns:xlink="http://www.w3.org/1999/xlink" x="0px" y="0px"
	 width="152px" height="152px" viewBox="0 0 152 152" enable-background="new 0 0 152 152" xml:space="preserve">
<g>
	<path fill="#FF5000" d="M-0.003,75.998c0,41.977,34.03,76.002,76.008,76.002c41.972,0,75.998-34.025,75.998-76.002
		C152.003,34.027,117.977,0,76.005,0C34.027,0-0.003,34.027-0.003,75.998"/>
	<path fill="#FFFFFF" d="M61.806,75.069c-0.651-4.148-3.612-7.059-8.6-7.059h-7.747v7.942v0.196v6.747h0.01
		c0,2.54,0.007,5.086-0.01,7.634c0,0.47,0.129,0.668,0.619,0.655c0.71-0.033,1.423-0.033,2.131,0
		c0.485,0.013,0.636-0.182,0.631-0.647c-0.022-1.815,0.007-3.626-0.022-5.435c-0.004-0.536,0.152-0.731,0.701-0.722
		c1.399,0.024,2.797,0.021,4.195,0.002C58.843,84.34,62.59,80.13,61.806,75.069 M54.11,80.879h-0.027
		c-0.127,0.011-0.246,0.025-0.375,0.025c-0.661,0.013-1.324,0-1.993,0c-0.735,0-1.465,0.008-2.203,0.008
		c-0.711,0-0.698-0.185-0.686-0.706c0.022-1.388-0.005-2.773,0.007-4.162c-0.013-1.389,0.015-2.468-0.007-3.852
		c-0.012-0.524,0-0.699,0.666-0.699c0.745,0,3.482-0.008,4.216,0c0.126,0,0.248,0.018,0.367,0.022
		c0.015,0.002,0.028,0.002,0.036,0.002c2.559,0.228,4.437,2.036,4.422,4.526C58.546,78.527,56.668,80.652,54.11,80.879"/>
	<path fill="#FFFFFF" d="M88.654,78.365h2.843c0.263-1.153,0.329-2.362,0.147-3.617c-0.398-2.742-2.019-5.015-4.164-6.268
		c-0.989-0.575-2.095-0.949-3.237-1.043h-0.852c-0.06-0.003-0.114-0.003-0.175-0.005c-0.055,0.002-0.11,0.002-0.174,0.005h-0.848
		c-1.146,0.094-2.252,0.469-3.239,1.043c-2.146,1.253-3.762,3.526-4.162,6.268c-0.782,5.423,2.961,10.142,8.095,10.192
		c1.394,0.016,5.191,0.024,6.583-0.006c0.174-0.004,0.3,0.021,0.405,0.061v-3.687c-0.101,0.037-0.229,0.055-0.398,0.041
		c-0.732-0.048-3.859-0.008-4.593-0.019c-0.669,0-1.331,0.015-1.994,0c-0.127,0-0.25-0.011-0.374-0.022h-0.03
		c-1.793-0.168-3.249-1.344-3.957-2.943h9.388H88.654z M78.188,74.96c0.451-2.13,2.123-3.808,4.3-4.016c0.013,0,0.024,0,0.032-0.002
		c0.124-0.015,0.245-0.023,0.373-0.03h0.325h0.326c0.128,0.007,0.25,0.015,0.372,0.03c0.013,0.002,0.02,0.002,0.029,0.002
		c2.182,0.208,3.857,1.886,4.303,4.016H78.188z"/>
	<path fill="#FFFFFF" d="M139.015,70.016c-1.577-1.594-3.709-2.483-6.001-2.488h-0.04c-2.254,0-4.359,0.865-5.946,2.439
		c-1.595,1.588-2.479,3.717-2.485,5.998c-0.007,4.721,3.699,8.437,8.438,8.453h0.033c4.701,0,8.405-3.663,8.423-8.356
		C141.454,73.758,140.589,71.611,139.015,70.016 M137.968,75.971c0,2.694-2.141,4.877-4.805,4.971c-0.052,0-0.094,0.008-0.146,0.008
		h-0.015h-0.012c-2.743,0-4.972-2.229-4.972-4.979v-0.048v-0.048c0-0.41,0.067-0.818,0.18-1.208
		c0.573-2.107,2.505-3.665,4.794-3.665H133h0.018c0.111,0,0.222,0.013,0.333,0.015c2.022,0.143,3.711,1.504,4.346,3.343
		c0.012,0.044,0.034,0.088,0.047,0.129c0,0.013,0.003,0.02,0.003,0.029c0.146,0.434,0.224,0.881,0.224,1.357
		c0,0.015-0.002,0.034-0.002,0.051C137.964,75.938,137.968,75.956,137.968,75.971"/>
	<path fill="#FFFFFF" d="M75.657,68.012h-2.054c-0.362,0-0.743-0.002-1.229-0.002c-2.598,0-5.208-0.271-7.119,1.645
		c-1.593,1.595-2.087,3.908-2.064,5.969c0.022,2.683,0,8.368,0,8.761h3.478c0-1.183-0.015-6.341-0.005-8.953
		c0-2.648,1.468-3.932,5.857-3.932h2.683c0.069,0,0.122,0,0.164-0.008h0.291V68.012z"/>
	<path fill="#FFFFFF" d="M43.714,71.09v-3.078h-3.471l-0.015,9.648c0,2.414-2.346,3.898-4.732,3.915
		c-2.218,0.016-4.525-1.433-4.525-3.861c0-2.674-0.021-9.342-0.021-9.592v-0.109h-3.477v0.109v0.722v0.167v4.159h0.009
		c0,1.519,0,2.943-0.018,4.431c-0.015,1.205,0.293,2.309,0.861,3.353c2.271,4.189,7.247,4.844,10.737,3.431
		c2.985-1.209,4.675-4.404,4.675-7.046C43.738,75.183,43.724,72.861,43.714,71.09"/>
	<path fill="#FFFFFF" d="M26.194,78.021c-0.515-2.163-2.368-3.522-4.593-3.536c-0.275-0.005-0.557-0.005-0.832-0.005v-0.003h-5.332
		h-0.45c-0.669-0.002-1.302-0.602-1.469-1.2c-0.15-0.543,0.126-1.281,0.691-1.553c0.328-0.153,0.733-0.211,1.104-0.213
		c2.206-0.025,4.41-0.018,6.613-0.018h0.494h1.302h1.25h0.024V68.01h-9.939v0.021h-0.273c-1.209,0-2.231,0.455-3.036,1.367
		c-1.595,1.798-1.577,5.195,0.04,6.989c0.86,0.948,1.918,1.577,3.217,1.564c0.208-0.002,0.413,0,0.616-0.002h4.283
		c0.615,0.002,1.233,0.002,1.85,0.016c1.33,0.005,2.003,0.867,1.528,2.053c-0.292,0.73-0.896,0.872-1.594,0.872
		c-2.337,0-4.673,0.002-7.015,0.002c-0.721,0-1.441-0.019-2.16,0.021h-0.01h-0.606v3.47h0.266c0.092,0.018,0.164,0.021,0.23,0.021
		c3.283,0,6.566,0.021,9.857-0.021c0.533-0.002,1.11-0.196,1.6-0.432C25.865,82.944,26.785,80.541,26.194,78.021"/>
	<path fill="#FFFFFF" d="M107.761,78.021c-0.509-2.163-2.366-3.522-4.587-3.536c-0.275-0.005-0.552-0.005-0.83-0.005v-0.003h-5.336
		h-0.447c-0.673-0.002-1.306-0.602-1.471-1.2c-0.153-0.543,0.132-1.281,0.691-1.553c0.329-0.153,0.735-0.211,1.104-0.213
		c2.203-0.025,4.41-0.018,6.61-0.018h0.498h1.298h1.252h0.026V68.01h-9.944v0.021h-0.269c-1.214,0-2.229,0.455-3.037,1.367
		c-1.59,1.798-1.576,5.195,0.042,6.989c0.856,0.948,1.917,1.577,3.216,1.564c0.209-0.002,0.413,0,0.621-0.002h4.275
		c0.619,0.002,1.237,0.002,1.853,0.016c1.331,0.005,2.003,0.867,1.53,2.053c-0.295,0.73-0.898,0.872-1.591,0.872
		c-2.34,0-4.68,0.002-7.018,0.002c-0.723,0-1.446-0.019-2.161,0.021h-0.015h-0.61v3.47h0.275c0.092,0.018,0.159,0.021,0.229,0.021
		c3.284,0,6.565,0.021,9.852-0.021c0.537-0.002,1.117-0.196,1.605-0.432C107.437,82.944,108.36,80.541,107.761,78.021"/>
	<path fill="#FFFFFF" d="M123.573,78.021c-0.509-2.163-2.366-3.522-4.592-3.536c-0.276-0.005-0.555-0.005-0.834-0.005v-0.003h-5.33
		h-0.456c-0.663-0.002-1.296-0.602-1.465-1.2c-0.156-0.543,0.135-1.281,0.693-1.553c0.325-0.153,0.729-0.211,1.101-0.213
		c2.207-0.025,4.415-0.018,6.618-0.018h0.492h1.298h1.252h0.026V68.01h-9.939v0.021h-0.275c-1.212,0-2.228,0.455-3.038,1.367
		c-1.593,1.798-1.571,5.195,0.039,6.989c0.859,0.948,1.92,1.577,3.22,1.564c0.203-0.002,0.412,0,0.619-0.002h4.278
		c0.615,0.002,1.233,0.002,1.851,0.016c1.33,0.005,2.002,0.867,1.531,2.053c-0.289,0.73-0.896,0.872-1.591,0.872
		c-2.342,0-4.681,0.002-7.016,0.002c-0.726,0-1.448-0.019-2.161,0.021h-0.011h-0.607v3.47h0.263
		c0.096,0.018,0.165,0.021,0.237,0.021c3.283,0,6.566,0.021,9.857-0.021c0.532-0.002,1.104-0.196,1.599-0.432
		C123.243,82.944,124.165,80.541,123.573,78.021"/>
</g>
</svg>
